<svg width="172" height="24" viewBox="0 0 172 24" fill="none" xmlns="http://www.w3.org/2000/svg">
<path d="M126.629 19.6055H113V0H116.896V15.6816H126.629V19.6055Z" fill="#FF4040"/>
<path d="M132.561 19.6055H128.665V0H132.561V19.6055Z" fill="#FF4040"/>
<path d="M135.045 5.87891C135.045 5.06771 135.199 4.30664 135.506 3.5957C135.814 2.88477 136.23 2.26497 136.755 1.73633C137.289 1.19857 137.909 0.77474 138.615 0.464844C139.321 0.154948 140.076 0 140.882 0H149.814V3.92383H140.882C140.61 3.92383 140.357 3.97396 140.122 4.07422C139.886 4.17448 139.678 4.31576 139.497 4.49805C139.325 4.67122 139.19 4.8763 139.09 5.11328C138.99 5.35026 138.941 5.60547 138.941 5.87891C138.941 6.15234 138.99 6.41211 139.09 6.6582C139.19 6.89518 139.325 7.10482 139.497 7.28711C139.678 7.46029 139.886 7.59701 140.122 7.69727C140.357 7.79753 140.61 7.84766 140.882 7.84766H144.778C145.583 7.84766 146.339 8.0026 147.045 8.3125C147.759 8.61328 148.379 9.03255 148.904 9.57031C149.438 10.099 149.854 10.7233 150.153 11.4434C150.461 12.1543 150.615 12.9154 150.615 13.7266C150.615 14.5378 150.461 15.2988 150.153 16.0098C149.854 16.7207 149.438 17.3451 148.904 17.8828C148.379 18.4115 147.759 18.8307 147.045 19.1406C146.339 19.4505 145.583 19.6055 144.778 19.6055H136.131V15.6816H144.778C145.049 15.6816 145.302 15.6315 145.538 15.5312C145.773 15.431 145.977 15.2943 146.149 15.1211C146.33 14.9388 146.47 14.7292 146.569 14.4922C146.669 14.2552 146.719 14 146.719 13.7266C146.719 13.4531 146.669 13.1979 146.569 12.9609C146.47 12.724 146.33 12.5189 146.149 12.3457C145.977 12.1634 145.773 12.0221 145.538 11.9219C145.302 11.8216 145.049 11.7715 144.778 11.7715H140.882C140.076 11.7715 139.321 11.6165 138.615 11.3066C137.909 10.9967 137.289 10.5775 136.755 10.0488C136.23 9.51107 135.814 8.88672 135.506 8.17578C135.199 7.45573 135.045 6.6901 135.045 5.87891Z" fill="#FF4040"/>
<path d="M161.08 19.6055H157.198V3.92383H149.814V0H171.5V3.92383H161.08V19.6055Z" fill="#FF4040"/>
<path d="M0 6.27344C0 5.46224 0.153843 4.70117 0.461529 3.99023C0.769215 3.2793 1.1855 2.65951 1.71037 2.13086C2.2443 1.5931 2.86419 1.16927 3.57006 0.859375C4.27593 0.549479 5.03157 0.394531 5.83698 0.394531H14.7689V4.31836H5.83698C5.5655 4.31836 5.31211 4.36849 5.07682 4.46875C4.84153 4.56901 4.63339 4.71029 4.4524 4.89258C4.28045 5.06576 4.14471 5.27083 4.04517 5.50781C3.94562 5.74479 3.89585 6 3.89585 6.27344C3.89585 6.54688 3.94562 6.80664 4.04517 7.05273C4.14471 7.28971 4.28045 7.49935 4.4524 7.68164C4.63339 7.85482 4.84153 7.99154 5.07682 8.0918C5.31211 8.19206 5.5655 8.24219 5.83698 8.24219H9.73283C10.5382 8.24219 11.2939 8.39714 11.9998 8.70703C12.7147 9.00781 13.3346 9.42708 13.8594 9.96484C14.3934 10.4935 14.8097 11.1178 15.1083 11.8379C15.416 12.5488 15.5698 13.3099 15.5698 14.1211C15.5698 14.9323 15.416 15.6934 15.1083 16.4043C14.8097 17.1152 14.3934 17.7396 13.8594 18.2773C13.3346 18.806 12.7147 19.2253 11.9998 19.5352C11.2939 19.8451 10.5382 20 9.73283 20H1.08595V16.0762H9.73283C10.0043 16.0762 10.2577 16.026 10.493 15.9258C10.7283 15.8255 10.9319 15.6888 11.1038 15.5156C11.2848 15.3333 11.4251 15.1237 11.5246 14.8867C11.6242 14.6497 11.674 14.3945 11.674 14.1211C11.674 13.8477 11.6242 13.5924 11.5246 13.3555C11.4251 13.1185 11.2848 12.9134 11.1038 12.7402C10.9319 12.5579 10.7283 12.4167 10.493 12.3164C10.2577 12.2161 10.0043 12.166 9.73283 12.166H5.83698C5.03157 12.166 4.27593 12.0111 3.57006 11.7012C2.86419 11.3913 2.2443 10.972 1.71037 10.4434C1.1855 9.9056 0.769215 9.28125 0.461529 8.57031C0.153843 7.85026 0 7.08464 0 6.27344Z" fill="#363434"/>
<path d="M34.6011 23.9238H30.1758L27.8411 20.3965C27.7144 20.4147 27.5922 20.4238 27.4745 20.4238C27.366 20.4238 27.2574 20.4238 27.1488 20.4238C26.2257 20.4238 25.3343 20.3008 24.4746 20.0547C23.6239 19.8177 22.8231 19.4805 22.0719 19.043C21.3299 18.5964 20.6512 18.0632 20.0358 17.4434C19.4204 16.8236 18.891 16.14 18.4476 15.3926C18.0132 14.6361 17.6738 13.8294 17.4295 12.9727C17.1942 12.1068 17.0766 11.209 17.0766 10.2793C17.0766 9.34961 17.1942 8.45182 17.4295 7.58594C17.6738 6.72005 18.0132 5.91341 18.4476 5.16602C18.891 4.41862 19.4204 3.73503 20.0358 3.11523C20.6512 2.49544 21.3299 1.9668 22.0719 1.5293C22.8231 1.0918 23.6239 0.754557 24.4746 0.517578C25.3343 0.271484 26.2257 0.148438 27.1488 0.148438C28.0718 0.148438 28.9632 0.271484 29.8229 0.517578C30.6826 0.754557 31.4835 1.0918 32.2256 1.5293C32.9676 1.9668 33.6464 2.49544 34.2617 3.11523C34.8771 3.73503 35.402 4.41862 35.8364 5.16602C36.2707 5.91341 36.6056 6.72005 36.8409 7.58594C37.0852 8.45182 37.2074 9.34961 37.2074 10.2793C37.2074 11.2454 37.0716 12.1842 36.8001 13.0957C36.5377 14.0072 36.1622 14.8594 35.6735 15.6523C35.1848 16.4362 34.592 17.1471 33.8952 17.7852C33.2075 18.4232 32.4382 18.9564 31.5876 19.3848L34.6011 23.9238ZM33.3387 10.2793C33.3387 9.42253 33.1758 8.61589 32.85 7.85938C32.5242 7.09375 32.0808 6.43294 31.5197 5.87695C30.9677 5.31185 30.3116 4.86523 29.5514 4.53711C28.8003 4.20898 27.9994 4.04492 27.1488 4.04492C26.2891 4.04492 25.4836 4.20898 24.7325 4.53711C23.9814 4.86523 23.3253 5.31185 22.7642 5.87695C22.2032 6.43294 21.7597 7.09375 21.4339 7.85938C21.1082 8.61589 20.9453 9.42253 20.9453 10.2793C20.9453 11.1361 21.1082 11.9427 21.4339 12.6992C21.7597 13.4466 22.2032 14.1029 22.7642 14.668C23.3253 15.2331 23.9814 15.6797 24.7325 16.0078C25.4836 16.3359 26.2891 16.5 27.1488 16.5C27.9994 16.5 28.8003 16.3359 29.5514 16.0078C30.3116 15.6797 30.9677 15.2331 31.5197 14.668C32.0808 14.1029 32.5242 13.4466 32.85 12.6992C33.1758 11.9427 33.3387 11.1361 33.3387 10.2793Z" fill="#363434"/>
<path d="M55.1256 12.166C55.1256 13.2507 54.9219 14.2715 54.5147 15.2285C54.1075 16.1764 53.5509 17.0059 52.8451 17.7168C52.1392 18.4186 51.3112 18.9746 50.361 19.3848C49.4198 19.7949 48.4108 20 47.3339 20C46.257 20 45.2434 19.7949 44.2932 19.3848C43.352 18.9746 42.5285 18.4186 41.8227 17.7168C41.1259 17.0059 40.5738 16.1764 40.1666 15.2285C39.7594 14.2715 39.5557 13.2507 39.5557 12.166V0.394531H43.438V12.166C43.438 12.7038 43.5376 13.2096 43.7367 13.6836C43.9448 14.1576 44.2253 14.5723 44.5783 14.9277C44.9312 15.2832 45.343 15.5658 45.8135 15.7754C46.2932 15.9759 46.7999 16.0762 47.3339 16.0762C47.8678 16.0762 48.37 15.9759 48.8406 15.7754C49.3203 15.5658 49.7365 15.2832 50.0895 14.9277C50.4424 14.5723 50.7184 14.1576 50.9175 13.6836C51.1256 13.2096 51.2297 12.7038 51.2297 12.166V0.394531H55.1256V12.166Z" fill="#363434"/>
<path d="M69.8266 12.166V8.24219C69.8266 7.70443 69.7225 7.19857 69.5144 6.72461C69.3153 6.24154 69.0393 5.82227 68.6864 5.4668C68.3334 5.11133 67.9172 4.83333 67.4375 4.63281C66.9669 4.42318 66.4647 4.31836 65.9308 4.31836C65.3968 4.31836 64.8901 4.42318 64.4104 4.63281C63.9399 4.83333 63.5281 5.11133 63.1752 5.4668C62.8222 5.82227 62.5417 6.24154 62.3336 6.72461C62.1345 7.19857 62.0349 7.70443 62.0349 8.24219V12.166H69.8266ZM73.7225 20H69.8266V16.0762H62.0349V20H58.1526V8.24219C58.1526 7.15755 58.3563 6.14128 58.7635 5.19336C59.1707 4.23633 59.7228 3.40234 60.4196 2.69141C61.1254 1.98047 61.949 1.41992 62.8901 1.00977C63.8403 0.599609 64.8539 0.394531 65.9308 0.394531C67.0077 0.394531 68.0167 0.599609 68.9579 1.00977C69.9081 1.41992 70.7361 1.98047 71.442 2.69141C72.1478 3.40234 72.7044 4.23633 73.1116 5.19336C73.5189 6.14128 73.7225 7.15755 73.7225 8.24219V20Z" fill="#363434"/>
<path d="M75.9622 6.27344C75.9622 5.46224 76.1161 4.70117 76.4238 3.99023C76.7315 3.2793 77.1477 2.65951 77.6726 2.13086C78.2065 1.5931 78.8264 1.16927 79.5323 0.859375C80.2382 0.549479 80.9938 0.394531 81.7992 0.394531H90.7312V4.31836H81.7992C81.5277 4.31836 81.2743 4.36849 81.0391 4.46875C80.8038 4.56901 80.5956 4.71029 80.4146 4.89258C80.2427 5.06576 80.1069 5.27083 80.0074 5.50781C79.9079 5.74479 79.8581 6 79.8581 6.27344C79.8581 6.54688 79.9079 6.80664 80.0074 7.05273C80.1069 7.28971 80.2427 7.49935 80.4146 7.68164C80.5956 7.85482 80.8038 7.99154 81.0391 8.0918C81.2743 8.19206 81.5277 8.24219 81.7992 8.24219H85.6951C86.5005 8.24219 87.2561 8.39714 87.962 8.70703C88.6769 9.00781 89.2968 9.42708 89.8217 9.96484C90.3556 10.4935 90.7719 11.1178 91.0705 11.8379C91.3782 12.5488 91.5321 13.3099 91.5321 14.1211C91.5321 14.9323 91.3782 15.6934 91.0705 16.4043C90.7719 17.1152 90.3556 17.7396 89.8217 18.2773C89.2968 18.806 88.6769 19.2253 87.962 19.5352C87.2561 19.8451 86.5005 20 85.6951 20H77.0482V16.0762H85.6951C85.9666 16.0762 86.2199 16.026 86.4552 15.9258C86.6905 15.8255 86.8941 15.6888 87.0661 15.5156C87.2471 15.3333 87.3873 15.1237 87.4869 14.8867C87.5864 14.6497 87.6362 14.3945 87.6362 14.1211C87.6362 13.8477 87.5864 13.5924 87.4869 13.3555C87.3873 13.1185 87.2471 12.9134 87.0661 12.7402C86.8941 12.5579 86.6905 12.4167 86.4552 12.3164C86.2199 12.2161 85.9666 12.166 85.6951 12.166H81.7992C80.9938 12.166 80.2382 12.0111 79.5323 11.7012C78.8264 11.3913 78.2065 10.972 77.6726 10.4434C77.1477 9.9056 76.7315 9.28125 76.4238 8.57031C76.1161 7.85026 75.9622 7.08464 75.9622 6.27344Z" fill="#363434"/>
<path d="M97.9935 20H94.0976V0.394531H97.9935V8.24219H105.772V0.394531H109.667V20H105.772V12.166H97.9935V20Z" fill="#363434"/>
<circle cx="27" cy="10" r="8" fill="#363434"/>
<circle cx="32.5" cy="8.5" r="1.5" fill="#FFDA18"/>
<circle cx="32.5" cy="8.5" r="1.5" fill="#FFDA18"/>
<circle cx="30.5" cy="4.5" r="1.5" fill="#FFDA18"/>
<circle cx="30.5" cy="4.5" r="1.5" fill="#FFDA18"/>
</svg>
